# xmcd
#
# Track frame offsets: 
#        150
#        23965
#        43837
#        59557
#        83570
#        102537
#        121967
#        137147
#        163070
#        185780
#        215300
#        230525
#
# Disc length: 3326 seconds
#
# Revision: 1
# Processed by: cddbd v1.5.2PL0 Copyright (c) Steve Scherf et al.
# Submitted via: ExactAudioCopy v0.99pb4
#
DISCID=ae0cfc0c
DTITLE=Tino Gonzales - Live At The Dinosaur 2
DYEAR=1998
DGENRE=Blues
TTITLE0=Dead Man's Shoes
TTITLE1=Love Is Here To Stay
TTITLE2=Peice of Work
TTITLE3=Same Old Blues
TTITLE4=Lovin' Tool
TTITLE5=I'll Play The Blues For You
TTITLE6=Come Baby
TTITLE7=Mil Amores
TTITLE8=Body and Fender Man
TTITLE9=Texas
TTITLE10=Poverty
TTITLE11=My Back Scratcher
EXTD=
EXTT0=
EXTT1=
EXTT2=
EXTT3=
EXTT4=
EXTT5=
EXTT6=
EXTT7=
EXTT8=
EXTT9=
EXTT10=
EXTT11=
PLAYORDER=
